PathFileType	4	(X/Y/Z)	/Users/itak/Documents/Research/Walk-IL/dataset/trc/00193_00008.trc
DataRate	CameraRate	NumFrames	NumMarkers	Units	OrigDataRate	OrigDataStartFrame	OrigNumFrames
100.000000	100.000000	4	53	mm	100.000000	287	766
Frame#	Time	RPSI			LPSI			L3			STRN			T10			C7			CLAV			RBAK			LBAK			LSHO			LUPA			LAEL			LAOL			LWTS			LWPS			LFRA			LIFD			LHPS			LHTS			RSHO			RUPA			RAEL			RAOL			RWTS			RWPS			RFRA			RIFD			RHTS			RHPS			RBHD			LFHD			RFHD			LBHD			LHIP			RHIP			RASI			LASI			LKNE			LTHI			LANK			LTIP			LTOE			LMT1			LMT5			LHEE			RKNE			RTHI			RANK			RTIP			RTOE			RMT1			RMT5			RHEE			
		X1	Y1	Z1	X2	Y2	Z2	X3	Y3	Z3	X4	Y4	Z4	X5	Y5	Z5	X6	Y6	Z6	X7	Y7	Z7	X8	Y8	Z8	X9	Y9	Z9	X10	Y10	Z10	X11	Y11	Z11	X12	Y12	Z12	X13	Y13	Z13	X14	Y14	Z14	X15	Y15	Z15	X16	Y16	Z16	X17	Y17	Z17	X18	Y18	Z18	X19	Y19	Z19	X20	Y20	Z20	X21	Y21	Z21	X22	Y22	Z22	X23	Y23	Z23	X24	Y24	Z24	X25	Y25	Z25	X26	Y26	Z26	X27	Y27	Z27	X28	Y28	Z28	X29	Y29	Z29	X30	Y30	Z30	X31	Y31	Z31	X32	Y32	Z32	X33	Y33	Z33	X34	Y34	Z34	X35	Y35	Z35	X36	Y36	Z36	X37	Y37	Z37	X38	Y38	Z38	X39	Y39	Z39	X40	Y40	Z40	X41	Y41	Z41	X42	Y42	Z42	X43	Y43	Z43	X44	Y44	Z44	X45	Y45	Z45	X46	Y46	Z46	X47	Y47	Z47	X48	Y48	Z48	X49	Y49	Z49	X50	Y50	Z50	X51	Y51	Z51	X52	Y52	Z52	X53	Y53	Z53	

288	2.87	-554.9695434570312	1036.145874023438	-354.5108337402344	-645.9745483398438	1044.641967773438	-436.6539611816406	-595.9075927734375	1076.225952148438	-390.4650573730469	-427.0711975097656	1284.826782226562	-600.1103515625	-603.3170776367188	1239.562866210938	-357.5736083984375	-559.0645141601562	1506.317138671875	-418.3944702148438	-448.6491088867188	1399.542724609375	-584.6952514648438	-516.7935180664062	1330.927368164062	-300.80419921875	-646.6620483398438	1485.4912109375	-468.3363952636719	-671.766357421875	1474.395751953125	-575.4057006835938	-759.384521484375	1347.414428710938	-576.1435546875	-788.4138793945312	1135.216552734375	-580.7750854492188	-735.4096069335938	1115.471069335938	-511.9833374023438	-756.15966796875	895.4363403320312	-669.931396484375	-819.3131103515625	883.9905395507812	-603.0999755859375	-809.7651977539062	1026.685668945312	-593.6587524414062	-734.6211547851562	731.434326171875	-650.6921997070312	-815.43603515625	812.1461791992188	-618.4853515625	-779.7648315429688	816.8092041015625	-681.2265625	-377.9182434082031	1480.332885742188	-369.6879272460938	-333.4933471679688	1412.0078125	-314.6044006347656	-302.70556640625	1114.667724609375	-286.3966064453125	-391.2870788574219	1118.236206054688	-324.6587219238281	-261.6289978027344	946.1801147460938	-490.9367370605469	-250.8458862304688	896.654296875	-417.1239624023438	-276.1352233886719	1044.8662109375	-322.1202087402344	-274.2298278808594	789.4082641601562	-590.438720703125	-240.7104339599609	872.518310546875	-546.4169921875	-241.059814453125	831.2360229492188	-476.5596313476562	-461.7900390625	1646.881713867188	-411.3400573730469	-465.3989868164062	1727.333618164062	-614.900390625	-361.5928039550781	1706.085815429688	-540.608642578125	-575.3128662109375	1676.324951171875	-481.7247619628906	-668.414306640625	997.7760620117188	-602.1469116210938	-364.9679260253906	975.8414916992188	-389.3232727050781	-348.4889831542969	1012.964721679688	-483.2945556640625	-541.8845825195312	1032.869140625	-650.2705078125	-515.4869995117188	531.5516357421875	-776.451171875	-568.5260009765625	667.26220703125	-740.9911499023438	-614.0479125976562	52.91874694824219	-788.5110473632812	-570.1790771484375	305.1543273925781	-795.7760009765625	-431.0392761230469	73.01685333251953	-899.2666625976562	-438.7149047851562	69.52706146240234	-832.5152587890625	-551.2547607421875	47.60629272460938	-880.9493408203125	-613.5479736328125	53.15484237670898	-703.8241577148438	-482.8753051757812	484.5694580078125	-466.8426818847656	-367.2281799316406	739.0816650390625	-447.1647033691406	-650.4175415039062	33.44607925415039	-419.8525390625	-524.9591064453125	371.8453369140625	-496.6146850585938	-575.2271118164062	41.27286148071289	-632.5172119140625	-638.7756958007812	41.83148956298828	-604.7196655273438	-563.6843872070312	35.48838806152344	-501.7317504882812	-733.3909912109375	37.54837417602539	-408.1509094238281	
289	2.88	-552.2068481445312	1035.162719726562	-360.9916076660156	-642.1661987304688	1043.594604492188	-444.4260864257812	-592.1032104492188	1075.27734375	-397.4913330078125	-420.9018859863281	1283.47607421875	-604.9584350585938	-600.2607421875	1238.554809570312	-364.818115234375	-554.913330078125	1505.178344726562	-425.1745910644531	-442.5790405273438	1398.231811523438	-589.9276733398438	-514.4351196289062	1329.882202148438	-306.9010314941406	-641.9579467773438	1484.451416015625	-476.1029052734375	-665.6808471679688	1473.39697265625	-583.4304809570312	-753.840087890625	1346.795043945312	-585.614501953125	-783.7800903320312	1134.927490234375	-591.1650390625	-731.83056640625	1114.648681640625	-521.7736206054688	-751.9860229492188	895.1757202148438	-680.5752563476562	-816.0791625976562	884.0458374023438	-614.527587890625	-805.61767578125	1026.59033203125	-604.6033935546875	-731.36279296875	731.3787841796875	-661.5416870117188	-812.4552612304688	812.2163696289062	-630.0145263671875	-776.0035400390625	816.675048828125	-692.2525634765625	-374.4464721679688	1479.069946289062	-374.1032409667969	-330.6799011230469	1410.628540039062	-318.591552734375	-300.51611328125	1113.272827148438	-289.8834228515625	-388.4701232910156	1117.083129882812	-329.4577026367188	-257.9003601074219	944.2257080078125	-493.6622314453125	-247.7934417724609	894.9034423828125	-419.6393127441406	-273.6910400390625	1043.383666992188	-325.183837890625	-269.9417114257812	787.1754150390625	-592.8141479492188	-236.5993957519531	870.3742065429688	-548.762451171875	-237.5370635986328	829.3513793945312	-478.7730407714844	-457.2218322753906	1645.938720703125	-417.450439453125	-459.7159729003906	1725.84375	-621.2203979492188	-356.3136901855469	1704.789306640625	-546.3261108398438	-570.3162231445312	1675.206909179688	-488.5093383789062	-661.6203002929688	996.7462158203125	-610.2381591796875	-361.4046936035156	974.925048828125	-392.8150939941406	-343.5458984375	1011.785522460938	-486.4666442871094	-534.4154052734375	1031.5126953125	-656.4097290039062	-505.8613586425781	530.7379150390625	-781.5908813476562	-559.9827880859375	666.2260131835938	-747.1935424804688	-586.109619140625	49.31233596801758	-806.7364501953125	-552.2789306640625	303.4717102050781	-806.8621826171875	-401.2638549804688	78.1871337890625	-912.1196899414062	-410.5497741699219	72.97066497802734	-845.7216796875	-520.853515625	47.87907409667969	-897.5371704101562	-587.8316650390625	48.20312881469727	-722.0911865234375	-480.3714904785156	483.6239929199219	-468.9574279785156	-363.5550842285156	737.9720458984375	-449.2407531738281	-650.8583374023438	33.62058639526367	-420.1844482421875	-522.9937744140625	370.8671264648438	-498.4486694335938	-575.0308227539062	41.05950927734375	-632.7415161132812	-638.6234741210938	41.72138977050781	-604.8665161132812	-563.6704711914062	35.47956085205078	-501.7274475097656	-733.8812255859375	37.99725723266602	-408.7322082519531	
290	2.89	-549.183837890625	1034.09228515625	-367.4566955566406	-638.132568359375	1042.467407226562	-452.0838623046875	-588.2158203125	1074.236694335938	-404.48681640625	-414.6744689941406	1282.06103515625	-609.80908203125	-597.0421142578125	1237.454345703125	-372.0381469726562	-550.650634765625	1503.935668945312	-431.9726867675781	-436.4368591308594	1396.849853515625	-595.1572875976562	-511.9244689941406	1328.763916015625	-313.0249328613281	-637.1112670898438	1483.328125	-483.8343505859375	-659.4893798828125	1472.3134765625	-591.4024047851562	-748.1494140625	1346.097045898438	-594.9750366210938	-779.0729370117188	1134.5791015625	-601.4823608398438	-728.1344604492188	1113.739013671875	-531.5199584960938	-747.6544799804688	894.9254760742188	-691.3135986328125	-812.6636962890625	884.0311279296875	-626.025634765625	-801.3470458984375	1026.425048828125	-615.525390625	-728.0117797851562	731.5377807617188	-672.7149658203125	-809.3074951171875	812.2496337890625	-641.7090454101562	-772.1270751953125	816.5908203125	-703.4642333984375	-370.8878173828125	1477.75927734375	-378.5203857421875	-327.7822875976562	1409.188720703125	-322.6156921386719	-298.2842102050781	1111.833374023438	-293.3654479980469	-385.6399230957031	1115.697143554688	-334.2155456542969	-254.0088653564453	942.0588989257812	-496.1814880371094	-244.6889495849609	892.9871215820312	-421.9051513671875	-271.2063903808594	1041.832641601562	-328.1651000976562	-265.4251708984375	784.6620483398438	-594.8695068359375	-232.2905120849609	867.9589233398438	-550.8136596679688	-233.9197387695312	827.2550048828125	-480.6643676757812	-452.6284790039062	1644.914428710938	-423.5311279296875	-453.9117126464844	1724.305786132812	-627.48291015625	-350.9558715820312	1703.457641601562	-551.9503784179688	-565.2564697265625	1674.000244140625	-495.2995910644531	-654.7977294921875	995.6344604492188	-618.2290649414062	-357.6393127441406	973.9754028320312	-396.4759521484375	-338.5375671386719	1010.537292480469	-489.8357849121094	-527.0165405273438	1030.065063476562	-662.5369262695312	-496.5344543457031	529.7232666015625	-786.4334716796875	-551.8259887695312	664.94775390625	-753.1643676757812	-557.817626953125	46.38935470581055	-823.4786376953125	-534.4325561523438	302.0313110351562	-817.0316162109375	-371.7897033691406	84.03350830078125	-923.5486450195312	-382.5016784667969	77.10648345947266	-857.5631713867188	-490.396728515625	48.79564666748047	-912.5817260742188	-561.5579833984375	44.02159118652344	-738.9334106445312	-477.809326171875	482.6831970214844	-471.1566772460938	-359.4764709472656	736.8663330078125	-451.3827514648438	-651.37060546875	33.84072494506836	-420.5831604003906	-520.9989624023438	369.8838195800781	-500.3369140625	-574.8140869140625	40.84753799438477	-632.9801025390625	-638.436279296875	41.62191009521484	-605.0631103515625	-563.7066650390625	35.49649047851562	-501.7696838378906	-734.4580078125	38.51376724243164	-409.4285888671875	
291	2.9	-545.8966674804688	1032.942260742188	-373.8954467773438	-633.8505859375	1041.260009765625	-459.6243896484375	-584.2459716796875	1073.100708007812	-411.4443664550781	-408.3802795410156	1280.587036132812	-614.6651000976562	-593.6453247070312	1236.273193359375	-379.2310180664062	-546.2763061523438	1502.601318359375	-438.7849731445312	-430.2200317382812	1395.40185546875	-600.3885498046875	-509.2532958984375	1327.585205078125	-319.1769104003906	-632.1206665039062	1482.123413085938	-491.5352478027344	-653.19287109375	1471.143310546875	-599.3280029296875	-742.3098754882812	1345.31591796875	-604.2252807617188	-774.2845458984375	1134.16455078125	-611.7149047851562	-724.3049926757812	1112.740234375	-541.2137451171875	-743.1787719726562	894.6832275390625	-702.1339721679688	-809.031982421875	883.9356079101562	-637.5755004882812	-796.9495849609375	1026.184326171875	-626.4093017578125	-724.4766235351562	731.9024658203125	-684.1806030273438	-805.9701538085938	812.2398681640625	-653.5476684570312	-768.1211547851562	816.5533447265625	-714.8501586914062	-367.2272338867188	1476.405395507812	-382.9548950195312	-324.7968444824219	1407.707153320312	-326.6796875	-296.0038757324219	1110.366333007812	-296.854248046875	-382.7729797363281	1114.0869140625	-338.978515625	-249.9519500732422	939.6972045898438	-498.50341796875	-241.5292205810547	890.924560546875	-423.9298400878906	-268.682861328125	1040.229614257812	-331.0802917480469	-260.6936340332031	781.87841796875	-596.6024169921875	-227.7974853515625	865.283935546875	-552.5781860351562	-230.2245025634766	824.9581298828125	-482.2421264648438	-448.0142211914062	1643.816040039062	-429.5900268554688	-447.9920654296875	1722.72900390625	-633.6941528320312	-345.5210266113281	1702.101684570312	-557.486083984375	-560.136474609375	1672.70751953125	-502.100830078125	-647.9557495117188	994.4215698242188	-626.115478515625	-353.6951599121094	972.9739990234375	-400.2843627929688	-333.4629821777344	1009.225891113281	-493.4203186035156	-519.6997680664062	1028.544799804688	-668.667724609375	-487.3804931640625	528.5230102539062	-790.9667358398438	-544.006103515625	663.4017944335938	-758.9035034179688	-529.4591064453125	44.16292953491211	-838.7892456054688	-516.6859130859375	300.84130859375	-826.3150634765625	-342.8254699707031	90.467529296875	-933.5839233398438	-354.8079223632812	81.86734771728516	-868.0687866210938	-460.1304626464844	50.33898162841797	-926.1409912109375	-535.0326538085938	40.60318756103516	-754.3911743164062	-475.1878356933594	481.7601013183594	-473.4381713867188	-354.9317321777344	735.7718505859375	-453.5765075683594	-651.9393920898438	34.11125564575195	-421.0415344238281	-518.96875	368.9084167480469	-502.2752380371094	-574.590576171875	40.64266586303711	-633.2271728515625	-638.2271728515625	41.53559112548828	-605.3004150390625	-563.7835083007812	35.53949737548828	-501.852294921875	-735.0982055664062	39.11206817626953	-410.21826171875	
